<?xml version="1.0" encoding="UTF-8" standalone="no"?>
<svg width="21px" height="21px" viewBox="0 0 21 21" version="1.1" xmlns="http://www.w3.org/2000/svg" xmlns:xlink="http://www.w3.org/1999/xlink">
    <!-- Generator: sketchtool 3.7.1 (28215) - http://www.bohemiancoding.com/sketch -->
    <title>7C1114E8-7441-4B5A-9C22-3021A960E4FE</title>
    <desc>Created with sketchtool.</desc>
    <defs></defs>
    <g id="Page-1" stroke="none" stroke-width="1" fill="none" fill-rule="evenodd">
        <g id="BT:-beats-page" transform="translate(-1245.000000, -25.000000)" fill="#2BB673">
            <g id="main-nav" transform="translate(0.000000, -2.000000)">
                <g id="nav" transform="translate(99.000000, 0.000000)">
                    <path d="M1161.42623,32.2588797 L1161.42623,32.3215766 L1161.42623,41.2356876 C1161.42623,42.3886146 1160.7094,42.9807524 1159.66515,42.9807524 L1158.71494,42.9807524 C1157.82604,42.9807524 1157.09387,42.2485915 1157.09387,41.3596882 C1157.09387,40.4721783 1157.82604,39.7393208 1158.71494,39.7393208 L1159.77452,39.7393208 C1160.67805,39.7393208 1160.61605,39.0378117 1160.61605,39.0378117 L1160.61605,34.1599901 C1160.61605,33.6305493 1160.21061,33.6145267 1159.99256,33.6458752 L1154.81867,34.6901275 C1154.28853,34.7834763 1154.19519,35.1108936 1154.17986,35.2822652 L1154.17986,42.5286378 C1154.17986,43.6815648 1153.46303,44.2743991 1152.41877,44.2743991 L1151.46787,44.2743991 C1150.57966,44.2743991 1149.8475,43.5415416 1149.8475,42.653335 C1149.8475,41.7651284 1150.57966,41.0329675 1151.46787,41.0329675 L1152.52814,41.0329675 C1153.43168,41.0329675 1153.36968,40.3314585 1153.36968,40.3314585 L1153.36968,33.5678524 L1153.36968,32.6949717 L1153.36968,32.4462738 C1153.36968,32.1188565 1153.60305,31.8227876 1153.93047,31.7600907 L1160.60003,30.4044436 C1161.02079,30.3271174 1161.42623,30.6538381 1161.42623,31.0899301 L1161.42623,32.2588797 Z M1163.68402,27 L1148.98228,27 C1147.33544,27 1146,28.3354447 1146,29.9829809 L1146,44.6840191 C1146,46.3315553 1147.33544,47.667 1148.98228,47.667 L1163.68402,47.667 C1165.33156,47.667 1166.667,46.3315553 1166.667,44.6840191 L1166.667,29.9829809 C1166.667,28.3354447 1165.33156,27 1163.68402,27 L1163.68402,27 Z" id="beat-icon"></path>
                </g>
            </g>
        </g>
    </g>
</svg>